# xmcd
#
# Track frame offsets: 
#        150
#        17784
#        33463
#        52026
#        65379
#        78564
#        98855
#        114796
#        134450
#        150080
#
# Disc length: 2277 seconds
#
# Revision: 0
# Processed by: cddbd v1.5.2PL0 Copyright (c) Steve Scherf et al.
# Submitted via: ExactAudioCopy v1.3
#
DISCID=7608e30a
DTITLE=Sunday Wilde - Blueberries and Grits
DYEAR=2016
DGENRE=Blues
TTITLE0=Show Me  A Man
TTITLE1=Early iI The Morning
TTITLE2=Momma's Drinkin's Done
TTITLE3=That Man Drives Me Mad
TTITLE4=Too Many Troubles
TTITLE5=John The Conquer Root
TTITLE6=Daddy Daddy
TTITLE7=Sorrowful Blues
TTITLE8=One of These Days (feat. Reno Jack)
TTITLE9=Come On In
EXTD=
EXTT0=
EXTT1=
EXTT2=
EXTT3=
EXTT4=
EXTT5=
EXTT6=
EXTT7=
EXTT8=
EXTT9=
PLAYORDER=
